<svg width="10" height="9" viewBox="0 0 10 9" fill="none" xmlns="http://www.w3.org/2000/svg">
<path d="M4.64412 0.422576C4.70577 0.23285 4.97418 0.232851 5.03583 0.422576L5.90336 3.09257C5.93093 3.17742 6.01 3.23487 6.09921 3.23487H8.90661C9.1061 3.23487 9.18904 3.49014 9.02765 3.6074L6.75642 5.25754C6.68424 5.30998 6.65404 5.40293 6.68161 5.48778L7.54915 8.15778C7.61079 8.3475 7.39364 8.50527 7.23225 8.38801L4.96102 6.73786C4.88884 6.68543 4.79111 6.68543 4.71893 6.73786L2.4477 8.38801C2.28631 8.50527 2.06916 8.3475 2.13081 8.15778L2.99834 5.48778C3.02591 5.40293 2.99571 5.30998 2.92353 5.25754L0.652298 3.6074C0.490908 3.49014 0.573851 3.23487 0.773341 3.23487H3.58074C3.66995 3.23487 3.74902 3.17742 3.77659 3.09257L4.64412 0.422576Z" fill="#F1CC4A"/>
</svg>
